<?xml version="1.0" encoding="utf-8"?>
<!-- Generator: Adobe Illustrator 16.0.4, SVG Export Plug-In . SVG Version: 6.00 Build 0)  -->
<!DOCTYPE svg PUBLIC "-//W3C//DTD SVG 1.1//EN" "http://www.w3.org/Graphics/SVG/1.1/DTD/svg11.dtd">
<svg version="1.1" id="Layer_1" xmlns="http://www.w3.org/2000/svg" xmlns:xlink="http://www.w3.org/1999/xlink" x="0px" y="0px"
	 width="200px" height="200px" viewBox="0 0 200 200" enable-background="new 0 0 200 200" xml:space="preserve">
<g>
	<path fill="#89AC96" d="M145.856,14.097c0,2.999-20.263,6.231-45.257,6.231c-24.995,0-45.256-3.232-45.256-6.231
		c0-3,20.262-5.43,45.257-5.43C125.594,8.667,145.856,11.098,145.856,14.097z"/>
	<path fill="#89AC96" d="M84.931,129.746c0,5.044-3.145,9.133-5.121,9.133s-3.578-4.089-3.578-9.133
		c0-5.041,1.509-7.756,3.485-7.756C81.694,121.99,84.931,124.705,84.931,129.746z"/>
	<path fill="#89AC96" d="M84.252,151.012c0,4.877-3.502,7.254-5.479,7.254s-3.591-3.213-3.591-8.089c0-4.877,1.603-8.83,3.578-8.83
		C80.737,141.347,84.252,146.136,84.252,151.012z"/>
	<path fill="#89AC96" d="M125.837,129.746c0,5.044-1.603,9.133-3.578,9.133c-1.977,0-5.986-3.1-5.986-8.144s4.04-8.745,6.018-8.745
		C124.265,121.99,125.837,124.705,125.837,129.746z"/>
	<path fill="#89AC96" d="M127.504,150.478c0,5.043-1.774,7.788-3.753,7.788c-1.975,0-6.674-2.745-6.674-7.788
		c0-5.042,4.871-9.131,6.848-9.131S127.504,145.436,127.504,150.478z"/>
	<ellipse fill="#89AC96" cx="121.056" cy="168.895" rx="5.584" ry="8.298"/>
	<ellipse fill="#89AC96" cx="80.582" cy="168.895" rx="5.584" ry="8.298"/>
	<ellipse fill="#89AC96" cx="100.541" cy="132.864" rx="9.132" ry="8.297"/>
	<path fill="#89AC96" d="M109.673,152.064c0,4.584-4.089,8.301-9.131,8.301s-9.133-3.717-9.133-8.301
		c0-4.581,4.09-8.298,9.133-8.298S109.673,147.483,109.673,152.064z"/>
	<ellipse fill="#89AC96" cx="100.599" cy="173.392" rx="9.471" ry="8.298"/>
	<path fill="#89AC96" d="M98.722,185.686c9.623,0,17.433-2.238,19.25-2.715c2.1-0.556,5.13-2.086,6.923-3.271
		c1.348-0.891,2.358-2.583,4.131-2.505c2.366,0.104,2.557,2.571,0.911,4.043c-0.622,0.556-0.729,0.516-0.736,1.489
		c-0.002,0.353,0.505,1.629,0.382,1.857c-0.626,1.154-2.125-0.284-2.728-0.143c-1.662,0.394,0.238,2.421-1.665,2.479
		c-0.801,0.026-2.365-1.674-3.122-1.09c-1.062,0.818,0.916,2.487-1.389,2.447c-1.241-0.023-1.663-1.34-2.831-1.234
		c-1.798,0.161-0.201,2.616-1.704,2.718c-1.018,0.069-1.635-1.865-2.862-1.857c-1.905,0.013-0.994,2.534-2.6,2.947
		c-1.388,0.362-1.893-1.633-3.05-1.833c-1.452-0.248-1.919,0.465-2.642,1.486c-0.379,0.532-0.724,1.168-1.489,0.986
		c-0.771-0.18-0.39-1.081-0.948-1.608c-1.358-1.281-1.473,0.604-2.403,1.084c-1.688,0.869-1.92-1.052-2.563-1.827
		c-1.111-1.333-1.93-0.315-3.182,0.156c-1.498,0.563-2.092,0.396-3.18-0.677c-0.843-0.829-1.246-1.432-2.658-1.113
		c-1.076,0.242-2.148,1.955-3.299,1.519c-1.398-0.532,0.285-2.074-1.385-2.481c-1.142-0.278-2.041,0.939-3.052,1.237
		c-1.887,0.556-1.519-0.541-1.978-1.724c-0.616-1.591-1.562-0.702-2.742-0.642c-0.679,0.034-0.977,0.164-1.305-0.469
		c-0.336-0.648,0.356-1.113,0.341-1.608c-0.001-0.047,0.217-0.448,0.231-0.596c-0.421-0.023-1.836,0.229-2.177-0.04
		c-0.517-0.408-0.252-1.614-0.247-2.172c0.033-2.976,0.685-3.647,3.492-2.185c2.04,1.062,4.115,2.057,6.222,2.977
		C87.654,183.493,93.201,185.686,98.722,185.686z"/>
	<path fill="#89AC96" d="M145.913,17.037c0,0-1.975,1.729-5.677,2.716s-7.403,1.727-11.846,2.221
		c-3.812,0.424-15.626,1.348-27.792,1.356c-12.166-0.009-23.979-0.933-27.792-1.356c-4.442-0.495-8.144-1.234-11.846-2.221
		c-3.701-0.987-5.676-2.716-5.676-2.716s-4.442,39.982-1.727,52.322c2.715,12.339,6.787,20.396,9.625,26.406
		c4.196,8.884,8.171,14.364,9.872,17.522c1.952,3.624,4.352,8.65,27.202,8.7v0.003c0.117,0,0.226-0.003,0.343-0.003
		c0.117,0,0.226,0.003,0.343,0.003v-0.003c22.851-0.05,25.304-5.048,27.202-8.7c1.282-2.47,5.677-8.639,9.871-17.522
		c2.84-6.01,6.911-14.067,9.626-26.406C150.354,57.019,145.913,17.037,145.913,17.037z"/>
</g>
</svg>
