<?xml version="1.0" encoding="utf-8"?>
<!-- Generator: Adobe Illustrator 16.0.4, SVG Export Plug-In . SVG Version: 6.00 Build 0)  -->
<!DOCTYPE svg PUBLIC "-//W3C//DTD SVG 1.1//EN" "http://www.w3.org/Graphics/SVG/1.1/DTD/svg11.dtd">
<svg version="1.1" id="Layer_1" xmlns="http://www.w3.org/2000/svg" xmlns:xlink="http://www.w3.org/1999/xlink" x="0px" y="0px"
	 width="200px" height="200px" viewBox="0 0 200 200" enable-background="new 0 0 200 200" xml:space="preserve">
<g>
	<ellipse fill="#89AC96" cx="92.299" cy="160.098" rx="8.328" ry="6.145"/>
	<path fill="#89AC96" d="M62.64,148.449c0.248,0.872,0.019,1.89-0.906,3.074c-1.663,2.129-4.578,3.043-7.192,3.043
		c-4.598,0-8.328-2.751-8.328-6.143c0-2.371,1.981-5.189,4.433-4.891C53.456,143.875,61.668,145.062,62.64,148.449z"/>
	<path fill="#89AC96" d="M124.756,142.907c-0.14,1.224-0.728,2.489-1.368,3.252c-1.688,2.014-4.506,2.879-7.059,2.879
		c-3.167,0-8.146-1.361-6.12-5.598c0.793-1.658,3.705-2.422,5.304-2.887c2.386-0.692,6.75-2.485,8.706-0.018
		C124.725,141.176,124.855,142.032,124.756,142.907z"/>
	<path fill="#89AC96" d="M167.206,153.955c0,3.393-3.729,6.143-8.327,6.143c-4.601,0-8.328-2.75-8.328-6.143
		c0-3.396,3.728-6.145,8.328-6.145C163.478,147.811,167.206,150.56,167.206,153.955z"/>
	<path fill="#89AC96" d="M90.947,163.196c0.219-0.039,0.452-0.098,0.7-0.175c2.208-0.671,2.125-2.65,2.903-4.639
		c1.64-4.188,4.148-8.021,7.297-11.229c6.54-6.665,15.671-10.404,24.995-10.404c8.188,0,16.256,2.87,22.538,8.134
		c3.229,2.707,4.967,6.157,7.689,9.184c1.221,1.356,1.649,2.01,3.821,1.403c8.921-2.493-5.54-16.31-8.904-18.749
		c-7.253-5.261-16.222-7.892-25.145-7.892c-10.918,0-21.975,3.98-29.726,11.81c-3.458,3.488-6.194,7.706-7.771,12.372
		C88.469,155.607,85.789,164.143,90.947,163.196z"/>
	<polygon fill="#89AC96" points="89.195,143.89 50.515,115.39 20.709,106.93 57.792,133.707 56.354,135.698 7.962,100.758 
		51.615,113.146 90.652,141.91 	"/>
	<polygon fill="#89AC96" points="98.049,133.657 75.261,92.261 40.624,86.444 68.087,123.765 66.109,125.22 35.051,83.015 
		76.84,90.034 100.202,132.471 	"/>
	<polygon fill="#89AC96" points="109.277,126.058 91.394,82.215 57.826,73.573 77.999,120.426 75.741,121.397 53.587,69.945 
		93.203,80.144 111.554,125.13 	"/>
	<path fill="#89AC96" d="M122.354,130.136c-0.165-0.95-2.278-65.857-2.984-87.655l-32.176-1.648l4.829,76.499l-2.452,0.156
		l-5.003-79.251l37.185,1.904l0.037,1.129c0.968,29.896,2.839,86.87,2.995,88.506L122.354,130.136z"/>
	
		<rect x="87.168" y="69.293" transform="matrix(0.9755 0.2198 -0.2198 0.9755 18.0618 -21.273)" fill="#89AC96" width="34.899" height="2.456"/>
	<polygon fill="#89AC96" points="135.067,132.06 132.82,131.064 154.755,81.487 118.04,74.762 100.272,120.537 97.981,119.649 
		116.484,71.979 158.265,79.63 	"/>
	<polygon fill="#89AC96" points="144.737,137.513 142.81,135.988 177.284,92.436 137.766,86.062 110.248,123.485 108.269,122.027 
		136.675,83.396 181.812,90.676 	"/>
	<polygon fill="#89AC96" points="154.481,140.136 152.728,138.415 187.274,103.216 150.408,96.722 124.484,125.845 122.647,124.211 
		149.483,94.063 192.3,101.607 	"/>
	<path fill="#89AC96" d="M85.882,151.769l-35.911-11.195c0,0,12.289-17.341,27.172-20.526c14.222-3.044,27.406-0.228,33.042,1.448
		c5.638,1.676,10.364,4.1,10.364,4.1s-1.353,1.187-7.086,2.418c-14.726,3.156-24.433,18.705-25.598,21.025
		C86.701,151.359,85.882,151.769,85.882,151.769z"/>
	<circle fill="#89AC96" cx="14.335" cy="103.844" r="5.803"/>
	<circle fill="#89AC96" cx="49.972" cy="115.45" r="5.803"/>
	<circle fill="#89AC96" cx="37.427" cy="84.617" r="5.803"/>
	<circle fill="#89AC96" cx="75.932" cy="90.534" r="5.802"/>
	<circle fill="#89AC96" cx="56.868" cy="72.487" r="5.803"/>
	<circle fill="#89AC96" cx="91.002" cy="81.09" r="5.802"/>
	<circle fill="#89AC96" cx="87.866" cy="65.956" r="5.802"/>
	<circle fill="#89AC96" cx="120.549" cy="72.487" r="5.803"/>
	<circle fill="#89AC96" cx="120.549" cy="42.449" r="5.803"/>
	<circle fill="#89AC96" cx="85.882" cy="38.626" r="5.803"/>
	<circle fill="#89AC96" cx="157.564" cy="78.292" r="5.803"/>
	<circle fill="#89AC96" cx="178.315" cy="89.898" r="5.804"/>
	<circle fill="#89AC96" cx="188.694" cy="101.504" r="5.803"/>
	<circle fill="#89AC96" cx="150.206" cy="96.336" r="5.803"/>
	<circle fill="#89AC96" cx="137.234" cy="86.894" r="5.803"/>
</g>
</svg>
