<?xml version="1.0" encoding="utf-8"?>
<!-- Generator: Adobe Illustrator 16.0.4, SVG Export Plug-In . SVG Version: 6.00 Build 0)  -->
<!DOCTYPE svg PUBLIC "-//W3C//DTD SVG 1.1//EN" "http://www.w3.org/Graphics/SVG/1.1/DTD/svg11.dtd">
<svg version="1.1" id="Layer_1" xmlns="http://www.w3.org/2000/svg" xmlns:xlink="http://www.w3.org/1999/xlink" x="0px" y="0px"
	 width="200px" height="200px" viewBox="0 0 200 200" enable-background="new 0 0 200 200" xml:space="preserve">
<g>
	<path fill="#89AC96" d="M101.305,190.123c-49.567,0-89.894-40.326-89.894-89.895c0-49.569,40.327-89.895,89.894-89.895
		c49.569,0,89.896,40.326,89.896,89.895C191.2,149.797,150.874,190.123,101.305,190.123z M101.305,14.489
		c-47.276,0-85.739,38.462-85.739,85.74s38.463,85.74,85.739,85.74c47.277,0,85.741-38.463,85.741-85.74
		S148.582,14.489,101.305,14.489z"/>
	<path fill="#89AC96" d="M101.305,181.512c-44.82,0-81.285-36.463-81.285-81.283s36.464-81.286,81.285-81.286
		s81.286,36.466,81.286,81.286S146.125,181.512,101.305,181.512z M101.305,32.574c-37.304,0-67.654,30.35-67.654,67.655
		s30.35,67.655,67.654,67.655c37.306,0,67.656-30.351,67.656-67.655S138.61,32.574,101.305,32.574z"/>
	<circle fill="#89AC96" cx="101.305" cy="100.229" r="62.235"/>
</g>
</svg>
