<?xml version="1.0" encoding="utf-8"?>
<!-- Generator: Adobe Illustrator 16.0.4, SVG Export Plug-In . SVG Version: 6.00 Build 0)  -->
<!DOCTYPE svg PUBLIC "-//W3C//DTD SVG 1.1//EN" "http://www.w3.org/Graphics/SVG/1.1/DTD/svg11.dtd">
<svg version="1.1" id="Layer_1" xmlns="http://www.w3.org/2000/svg" xmlns:xlink="http://www.w3.org/1999/xlink" x="0px" y="0px"
	 width="200px" height="200px" viewBox="0 0 200 200" enable-background="new 0 0 200 200" xml:space="preserve">
<path fill="#89AC96" d="M162.08,71.165c-1.122,4.817-2.476,9.929-3.791,14.304c-0.123-0.774-0.302-1.472-0.509-2.096
	c-1.339-4.07-4.088-6.148-5.496-6.731c-1.639-0.68-3.501-0.656-5.108,0.053c-1.022,0.453-1.898,1.159-2.586,2.053
	c-0.063-0.686-0.141-1.25-0.223-1.668c-0.977-4.925-7.798-6.432-12.531-9.031c-4.731-2.601-0.835-6.704-0.835-6.704V50.668
	c0,0-4.456-1.78-7.936-4.653s-7.653-10.127-10.995-15.19c-3.342-5.061-6.124-5.475-6.124-5.475l-2.924-5.335h5.568v-2.602
	l-6.403-0.958l3.344-6.982l-4.214-1.806l-4.233,1.806l3.339,6.982l-6.401,0.958v2.602h5.566l-2.92,5.335
	c0,0-2.787,0.414-6.128,5.475c-3.339,5.063-7.516,12.317-10.993,15.19c-3.481,2.873-7.938,4.653-7.938,4.653v10.677
	c0,0,3.899,4.103-0.835,6.704c-4.73,2.599-11.55,4.106-12.526,9.031c-0.083,0.42-0.16,0.984-0.223,1.672
	c-0.688-0.896-1.563-1.604-2.586-2.057c-1.611-0.709-3.472-0.733-5.109-0.053c-1.412,0.583-4.159,2.661-5.497,6.731
	c-0.207,0.624-0.386,1.321-0.513,2.096c-1.312-4.375-2.666-9.486-3.786-14.304l-2.712,0.611c1.293,5.563,5.664,23.465,9.008,26.737
	c0.563,1.159,1.232,2.374,2.016,3.639c9.039,14.591,21.328,29.606,25.475,32.314c1.153,0.755,2.894,2.024,4.912,3.494
	c3.998,2.915,8.917,6.504,12.248,8.231c2.977,2.732,5.83,6.836,4.351,13.141c-2.088,8.895-4.316,11.632-9.186,13
	c-4.875,1.369-6.683,2.599-7.794,4.104c-1.115,1.508-3.064,1.779-3.203,3.833c-0.14,2.055-1.562,7.637,3.907,9.307
	c5.556,1.693,10.955,3.413,21.102,3.549v0.01c0.22,0,0.434-0.001,0.648-0.004c0.216,0.003,0.43,0.004,0.648,0.004v-0.01
	c10.148-0.136,15.546-1.855,21.1-3.549c5.475-1.67,4.052-7.252,3.909-9.307c-0.135-2.054-2.085-2.325-3.199-3.833
	c-1.11-1.505-2.922-2.734-7.791-4.104c-4.879-1.368-7.104-4.105-9.192-13c-1.477-6.305,1.375-10.407,4.353-13.141
	c3.327-1.728,8.252-5.316,12.247-8.228c2.018-1.474,3.762-2.743,4.912-3.498c4.15-2.708,16.436-17.724,25.477-32.314
	c0.782-1.265,1.452-2.48,2.015-3.639c3.347-3.272,7.716-21.177,9.007-26.737L162.08,71.165z M49.067,96.758
	c-2.707-5.848-2.431-9.971-1.585-12.542c1.068-3.251,3.198-4.75,3.928-5.052c0.942-0.388,1.965-0.378,2.888,0.029
	c1.026,0.455,1.82,1.366,2.237,2.569c0.306,0.893,0.303,3.722-0.24,6.92c-0.547,3.249-1.492,5.9-2.421,6.767
	C51.363,97.783,51.052,98.076,49.067,96.758z M51.225,100.73c-0.095-0.151-0.188-0.304-0.278-0.455
	c1.682-0.012,3.036-1.159,4.855-2.853c1.103-1.028,1.968-3.032,2.585-5.318c1.093,9.616,4.114,21.908,11.272,31.919
	c2.332,3.261,4.315,5.895,6.023,8.038C72.065,129.492,60.201,115.222,51.225,100.73z M151.387,100.73
	c-8.976,14.489-20.837,28.758-24.459,31.331c1.709-2.145,3.691-4.778,6.022-8.038c7.161-10.014,10.182-22.309,11.277-31.925
	c0.618,2.293,1.488,4.304,2.599,5.339c1.81,1.685,3.156,2.829,4.84,2.838C151.572,100.426,151.478,100.58,151.387,100.73z
	 M153.546,96.758c-1.991,1.321-2.3,1.023-4.818-1.322c-2.123-1.974-3.438-11.386-2.649-13.674c0.417-1.203,1.209-2.114,2.236-2.569
	c0.474-0.209,0.971-0.313,1.475-0.313c0.476,0,0.953,0.094,1.411,0.284c0.733,0.301,2.862,1.8,3.933,5.052
	C155.978,86.787,156.25,90.91,153.546,96.758z"/>
</svg>
