<?xml version="1.0" encoding="utf-8"?>
<!-- Generator: Adobe Illustrator 16.0.4, SVG Export Plug-In . SVG Version: 6.00 Build 0)  -->
<!DOCTYPE svg PUBLIC "-//W3C//DTD SVG 1.1//EN" "http://www.w3.org/Graphics/SVG/1.1/DTD/svg11.dtd">
<svg version="1.1" id="Layer_1" xmlns="http://www.w3.org/2000/svg" xmlns:xlink="http://www.w3.org/1999/xlink" x="0px" y="0px"
	 width="200px" height="200px" viewBox="0 0 200 200" enable-background="new 0 0 200 200" xml:space="preserve">
<g>
	<path fill="#89AC96" d="M145.955,71.924c-0.004-0.007-0.435-0.74-0.575-2.212c-0.124-1.307-0.332-3.492-2.352-3.949
		c-0.622-0.14-1.342-0.015-1.721,0.225c-3.267,1.18-6.314,2.088-7.261,2.24c-1.4-3.854-5.803-14.146-14.134-18.505
		c-10.099-5.281-19.305-6.745-26.542-4.223c-1.888,0.66-4.13,1.679-6.503,2.758c-5.804,2.639-13.027,5.924-19.177,5.924
		c-0.644,0-1.27-0.036-1.866-0.108c-9.371-1.132-9.845-5.664-9.845-6.561c0-0.396,0.114-1.049,0.234-1.739
		c0.357-2.042,0.763-4.356-0.469-5.5c-0.455-0.422-0.93-0.637-1.414-0.637c-2.947,0-3.297,7.797-3.297,7.876
		c0,1.629,0.685,9.837,14.196,11.471c0.794,0.096,1.625,0.146,2.469,0.146c7.206,0,14.96-3.525,21.223-6.372
		c2.269-1.032,4.413-2.006,6.08-2.587c5.911-2.067,13.767-0.697,22.618,3.935c7.779,4.07,11.693,15.5,12.093,16.707
		c0.133,0.655,0.497,1.255,1.025,1.693c0.617,0.509,1.406,0.768,2.346,0.768c0.318,0,0.658-0.029,0.93-0.081
		c1.417-0.075,4.234-0.926,6.624-1.731c0.361,1.887,1.008,2.929,1.221,3.231l0.428,0.612l4.035-2.769L145.955,71.924z"/>
	<path fill="#89AC96" d="M101.111,115.279c-17.338,0-31.906-4.03-36.024-9.482c-0.761,1.005-1.165,2.06-1.165,3.146
		c0,6.977,16.65,12.631,37.189,12.631c20.539,0,37.191-5.654,37.191-12.631c0-1.087-0.404-2.142-1.166-3.146
		C133.019,111.249,118.451,115.279,101.111,115.279z"/>
	<path fill="#89AC96" d="M101.402,111.639c16.086,0,29.801-3.419,35.114-8.216c3.11-8.131,4.217-24.26,4.217-24.26
		c-1.022-0.378-2.431-4.05-2.431-4.05L129.5,77.36c0,0-3.757-9.875-5.473-12.021c-1.719-2.146-7.836-8.908-13.633-10.519
		c-5.172-1.436-10.519-3.22-17.71,0c-7.192,3.22-10.733,5.903-16.423,7.62c-3.091,0.934-6.547,1.503-8.909,1.181
		c-2.361-0.322-6.732-1.385-6.732-1.385l4.939,40.47C70.251,107.878,84.521,111.639,101.402,111.639z"/>
	<g>
		<path fill="#89AC96" d="M127.254,174.73c-2.616-2.057-7.407-4.187-9.661-5.151c-2.253-0.966-2.576-1.933-2.576-3.864
			s-5.26-4.294-7.084-5.261c-1.824-0.965-1.718-1.716,0-2.789c1.717-1.074,2.468-1.289,2.362-2.361
			c-0.108-1.075-0.538-1.824-0.538-1.824c5.229-1.027,12.884-6.164,16.536-11.224c4.757-6.595,6.916-18.386,7.641-23.303
			c-6.354,3.873-18.526,6.494-32.508,6.494c-14.593,0-27.214-2.854-33.306-7.011c0.644,4.555,2.781,16.979,7.715,23.819
			c3.65,5.06,11.305,10.196,16.534,11.224c0,0-0.43,0.749-0.536,1.824c-0.107,1.072,0.644,1.287,2.36,2.361
			c1.718,1.073,1.826,1.824,0,2.789c-1.824,0.967-7.083,3.329-7.083,5.261s-0.322,2.898-2.577,3.864
			c-2.254,0.965-7.045,3.095-9.661,5.151c-2.344,1.846-4.507,9.124,2.148,12.559c5.605,2.895,12.76,6.225,24.043,6.053
			c11.286,0.172,18.438-3.158,24.042-6.053C131.761,183.854,129.599,176.576,127.254,174.73z"/>
	</g>
	<path fill="#89AC96" d="M137.111,61.492c0.9-0.365,1.677-1.418,2.421-2.551c1.565-2.388,3.013-4.857,4.318-7.396
		c3.33-6.467,6.077-13.738,5.937-21.115c-0.115-6.057-0.724-12.486-4.035-17.725c-1.204-1.908-2.251-3.572-4.312-4.599
		c-2.953-1.473-7.818-2.874-10.89-1.114c-3.633,2.082-4.454,5.794-5.021,9.702c-0.37,2.559-1.574,5.248-1.2,7.871
		c0.565,3.962,3.361,1.804,5.39,4.383c-1.104-1.404-3.171,6.572-3.255,6.958c-0.291,1.329-0.021,4.876-1.304,5.703
		c-1.788,1.154-3.564-3.412-5.643-0.874c-1.288,1.574,0.144,2.862,3.006,5.152c2.863,2.29,4.866,2.683,6.727,0.983
		c1.86-1.699,5.166-6.673,5.867-14.436c0.363-4.013,0.857-15.457,2.005-13.31c1.146,2.146,3.468,8.482,2.897,14.402
		c-0.571,5.92-2.576,12.718-4.724,17.297c-1.3,2.775-3.492,6.542-1.091,9.408C135.33,61.573,136.274,61.83,137.111,61.492z"/>
</g>
</svg>
